<svg xmlns="http://www.w3.org/2000/svg" viewBox="0 0 120 120"><rect width="120" height="120" fill="#F5EEDF"/><path d="M42 52h30v14a13 13 0 0 1-13 13h-4a13 13 0 0 1-13-13Z" fill="#FFF" stroke="#E2D7BD" stroke-width="2"/><path d="M72 56h5a6 6 0 0 1 0 12h-5" fill="none" stroke="#E2D7BD" stroke-width="2.4"/><path d="M45 55h24v10a10 10 0 0 1-10 10h-4a10 10 0 0 1-10-10Z" fill="#8F5B33"/><path d="M52 40q-3 4 0 8M60 38q-3 4 0 8" stroke="#C5A059" fill="none" stroke-width="2.4" stroke-linecap="round"/></svg>